<svg xmlns="http://www.w3.org/2000/svg" viewBox="0 -0.5 32 32" shape-rendering="crispEdges">
<path stroke="#000000" d="M17 7h6M15 8h2M22 8h1M13 9h2M21 9h1M2 10h11M20 10h1M23 10h5M1 11h1M19 11h1M22 11h1M27 11h1M0 12h1M18 12h1M21 12h1M27 12h1M0 13h1M18 13h1M20 13h1M28 13h1M0 14h1M18 14h1M20 14h1M29 14h1M0 15h1M18 15h1M20 15h1M30 15h1M0 16h1M18 16h1M30 16h1M0 17h3M21 17h5M30 17h1M6 18h4M22 18h4M30 18h1M4 19h2M10 19h2M20 19h2M26 19h2M31 19h1M3 20h1M12 20h1M19 20h1M28 20h1M31 20h1M3 21h1M8 21h1M12 21h1M19 21h1M24 21h1M28 21h1M30 21h2M2 22h1M6 22h1M11 22h1M13 22h1M18 22h1M22 22h1M27 22h1M29 22h1M2 23h1M5 23h1M12 23h2M18 23h1M21 23h1M28 23h2M2 24h1M5 24h1M12 24h2M18 24h1M21 24h1M28 24h2M2 25h1M11 25h3M18 25h1M27 25h3M3 26h1M10 26h3M19 26h1M26 26h3M3 27h1M6 27h1M9 27h4M19 27h1M22 27h1M25 27h4M4 28h8M20 28h8M6 29h4M22 29h4" /><path stroke="#d4df00" d="M17 8h1M15 9h1M19 9h1M13 10h1M18 10h1M17 11h1" /><path stroke="#ffff55" d="M18 8h3M2 11h10M1 12h1M1 13h1M22 13h4M1 14h1M1 15h1M1 16h1" /><path stroke="#aa7f00" d="M21 8h1" /><path stroke="#ffff00" d="M16 9h3M14 10h4M12 11h5M2 12h1M9 12h1M16 12h1M2 13h1M4 13h4M9 13h1M11 13h4M16 13h1M26 13h1M4 14h4M11 14h4M22 14h6" /><path stroke="#7f7f00" d="M20 9h1M19 10h1" /><path stroke="#d4bf00" d="M18 11h1M17 12h1M17 13h1M27 13h1M28 14h1M9 15h1M22 15h2M29 15h1M2 16h15M28 16h1M29 17h1" /><path stroke="#553f55" d="M23 11h1M19 17h1M26 18h2M9 19h1M25 19h1M10 23h1M26 23h1M3 25h1M6 25h1M9 25h1M19 25h1M22 25h1M25 25h1" /><path stroke="#aabfaa" d="M24 11h3M8 22h1M24 22h1M8 23h1M24 23h1M6 24h2M22 24h2" /><path stroke="#aa9f00" d="M3 12h5M10 12h5M3 13h1M10 13h1M3 14h1M10 14h1M17 14h1M21 14h1M3 15h1M10 15h1M21 15h1M27 16h1" /><path stroke="#ffffaa" d="M8 12h1M15 12h1M8 13h1M15 13h1M8 14h1M15 14h1M4 15h5M11 15h5" /><path stroke="#2a1f00" d="M22 12h1M20 16h1M16 17h2M20 17h1M26 17h2M3 18h3M10 18h12M28 18h2M2 19h1M29 19h2M1 20h1M8 20h2M11 20h1M24 20h2M27 20h1M30 20h1M1 21h2M6 21h2M9 21h3M13 21h6M22 21h2M25 21h3M5 22h1M10 22h1M12 22h1M21 22h1M26 22h1M28 22h1M11 23h1M27 23h1M11 24h1M27 24h1M4 25h2M20 25h2M5 26h2M9 26h1M21 26h2M25 26h1M4 27h2M7 27h2M20 27h2M23 27h2" /><path stroke="#808080" d="M23 12h4" /><path stroke="#553f00" d="M21 13h1M21 16h4M3 17h12M28 17h1M3 19h1M12 19h8" /><path stroke="#ffdf00" d="M2 14h1M9 14h1M16 14h1M2 15h1M16 15h1M24 15h5M29 16h1" /><path stroke="#7f5f00" d="M17 15h1M26 16h1M2 20h1M13 20h6" /><path stroke="#555f00" d="M17 16h1M25 16h1" /><path stroke="#2a3f00" d="M15 17h1" /><path stroke="#555f55" d="M18 17h1M6 19h3M22 19h3M28 19h1M4 20h2M20 20h2M4 21h1M20 21h1M3 22h1M7 22h1M19 22h1M23 22h1M3 23h1M6 23h1M19 23h1M22 23h1M3 24h1M19 24h1" /><path stroke="#2a5f55" d="M6 20h2M22 20h2M5 21h1M21 21h1M4 22h1M9 22h1M20 22h1M25 22h1M4 23h1M20 23h1M10 24h1M26 24h1M10 25h1M26 25h1M4 26h1M7 26h2M20 26h1M23 26h2" /><path stroke="#2a1f55" d="M10 20h1M26 20h1M4 24h1M20 24h1" /><path stroke="#d4dfff" d="M7 23h1M23 23h1" /><path stroke="#ffffff" d="M9 23h1M25 23h1M9 24h1M25 24h1M7 25h2M23 25h2" /><path stroke="#aa9faa" d="M8 24h1M24 24h1" /></svg>